<?xml version="1.0" encoding="iso-8859-1"?>
<!-- Generator: Adobe Illustrator 19.0.0, SVG Export Plug-In . SVG Version: 6.00 Build 0)  -->
<svg version="1.1" id="Layer_1" xmlns="http://www.w3.org/2000/svg" xmlns:xlink="http://www.w3.org/1999/xlink" x="0px" y="0px"
	 viewBox="0 0 512.002 512.002" style="enable-background:new 0 0 512.002 512.002;" xml:space="preserve">
<g>
	<g>
		<path d="M489.26,0.861L183.289,102.696c-6.784,2.258-11.362,8.605-11.362,15.756c0,14.236,0,259.223,0,271.915
			c-18.038-11.145-42.116-17.853-68.911-17.853c-57.266,0-102.124,30.635-102.124,69.744s44.859,69.744,102.124,69.744
			s102.124-30.635,102.124-69.744V218.993l272.758-90.781v160.319c-18.038-11.145-42.116-17.853-68.911-17.853
			c-57.266,0-102.124,30.635-102.124,69.744c0,39.109,44.859,69.744,102.124,69.744s102.124-30.635,102.124-69.744
			c0-13.24,0-310.194,0-323.805C511.111,5.3,500.008-2.715,489.26,0.861z M103.016,478.788c-40.611,0-68.911-19.252-68.911-36.531
			c0-17.279,28.3-36.531,68.911-36.531c40.611,0,68.911,19.252,68.911,36.531C171.928,459.536,143.626,478.788,103.016,478.788z
			 M408.987,376.954c-40.611,0-68.911-19.252-68.911-36.531c0-17.279,28.3-36.531,68.911-36.531
			c40.611,0,68.911,19.252,68.911,36.531C477.899,357.702,449.597,376.954,408.987,376.954z M477.899,93.209L205.14,183.99v-53.563
			l272.758-90.781V93.209z"/>
	</g>
</g>
<g>
</g>
<g>
</g>
<g>
</g>
<g>
</g>
<g>
</g>
<g>
</g>
<g>
</g>
<g>
</g>
<g>
</g>
<g>
</g>
<g>
</g>
<g>
</g>
<g>
</g>
<g>
</g>
<g>
</g>
</svg>
